<svg xmlns="http://www.w3.org/2000/svg" viewBox="0 0 18 18" class="icon-pricetag"><title>Page 1</title><g stroke="#7581A7" fill="none" fill-rule="evenodd"><path d="M9.7 16.73a.587.587 0 0 1-.83 0L.86 8.705a.594.594 0 0 1-.173-.42V1.594c0-.328.264-.593.59-.593h7.086c.156 0 .305.062.416.172l7.846 7.822a.595.595 0 0 1 0 .842L9.7 16.73z" stroke-width="1.25"/><path d="M3.886 6.012a1.22 1.22 0 0 0 1.732 0c.478-.481.478-1.26 0-1.742a1.22 1.22 0 0 0-1.732 0 1.236 1.236 0 0 0 0 1.742z" stroke-width="1.5"/></g></svg>