<svg xmlns="http://www.w3.org/2000/svg" width="78" height="78" viewBox="0 0 78 78" fill="none" class="step-image-svg">
    <path d="M16.076 10.088c.19.785.426 1.559.706 2.317.299.845.643 1.673 1.03 2.48.426.937.907 1.847 1.438 2.727a28.288 28.288 0 0 0 1.927 2.726 33.34 33.34 0 0 0 2.441 2.727 36.77 36.77 0 0 0 3.012 2.726l.976.818.489.382c.234.204.5.37.786.49.289.118.522.343.651.627a1.753 1.753 0 0 1 0 1.336s-1.6 5.453-1.573 6.19c0 0-.407 1.99 1.33 0a8.559 8.559 0 0 1 3.37-2.99 8.51 8.51 0 0 1 4.415-.855s2.55 0 0-1.254l-4.639-2.127s-1.655-.9-1.546-2.29c0 0 .95-23.119-14.731-26.09v.19c-.08.176-.143.358-.19.545 0 .3-.163.573-.217.873-.054.3 0 .763-.054 1.09-.055.328 0 .982 0 1.473v1.717c0 .573 0 1.309.162 1.936.028.749.1 1.495.217 2.236zM11.546 32.47a5.107 5.107 0 0 1 3.554.819c1.438.79.46 1.036.46 1.036a8.347 8.347 0 0 1-2.983.518c-5.236.163-4.884 2.862-4.884 2.862a6.426 6.426 0 0 0 5.806-1.717 5.708 5.708 0 0 1 2.876-1.036c2.81.92 5.456 2.281 7.84 4.035.624.245.597 0 .597 0l-.217-.546a13.89 13.89 0 0 1-5.86-5.452c-4.096-7.58-6.62-7.17-6.62-7.17-.705 3.162 3.989 6.188 3.989 6.188 3.364 1.827 2.712 2.727 2.712 2.727a62.367 62.367 0 0 1-8.301-5.453c-4.802-4.471-7-3.68-7-3.68-.27 2.344 3.799 3.625 3.799 3.625 4.15.9 4.53 2.318 4.53 2.318C4.085 27.536 3 31.026 3 31.026a9.478 9.478 0 0 0 8.546 1.445zM50.34 28.926a6.76 6.76 0 0 0 1.764-2.345 5.72 5.72 0 0 0 .461-1.608c.163-1.472-.488-2.726 0-4.253a5.121 5.121 0 0 0-.325-4.853 4.447 4.447 0 0 0-2.062-1.309c-4.938-1.58-8.139 5.208-8.736 9.024a5.478 5.478 0 0 0 1.492 5.126 6.086 6.086 0 0 0 7.407.218zm.218-10.414a.733.733 0 0 1 .572.584.742.742 0 0 1-.319.755.73.73 0 0 1-1.124-.479.742.742 0 0 1 .319-.755.733.733 0 0 1 .552-.105zm-1.031 7.142a.733.733 0 0 1 .549.853.736.736 0 0 1-.82.592.732.732 0 0 1-.55-.852.737.737 0 0 1 .82-.593zm-4.612-4.116a.734.734 0 0 1 .57.872.738.738 0 0 1-.868.573.732.732 0 0 1-.465-.318.741.741 0 0 1 .21-1.022.731.731 0 0 1 .553-.105zM43.477 35.442l12.127 6.434 18.828-7.415a.163.163 0 0 0 .162-.164.164.164 0 0 0-.162-.163L62.088 27.59h-.163l-18.556 7.552a.164.164 0 0 0 .108.3zM16.971 45.203h-.19l-4.069 1.553-4.286 12.187c0 .137 0 .245.19.191L36.07 48.229l4.123-11.669s0-.245-.19-.19l-19.533 7.442-3.5 1.39z" fill="#002684"/>
    <path d="M66.374 39.259a.216.216 0 0 0-.271 0L55.767 43.32h-.163l-12.127-6.407a.19.19 0 0 0-.287.125.192.192 0 0 0 .016.12l11.99 30.808a.189.189 0 0 0 .272 0l18.53-9.024v-.164l-7.624-19.52zM41.47 36.86l-4.423 12.623-19.831 7.77v.19L25.355 78h.19l28.594-9.406L41.74 36.86a.162.162 0 0 0-.272 0zm4.422 23.528 1.41 3.626a5.434 5.434 0 0 1-3.093 2.726 5.4 5.4 0 0 1-4.15 0l-1.357-3.544c1.628-2.127.217-4.744 0-5.889l.706-.463.786 1.69 1.71-.654-.57-1.772.84-.137c.435 1.036 1.113 4.008 3.718 4.417z" fill="#002684"/>
</svg>