<svg xmlns="http://www.w3.org/2000/svg" viewBox="0 0 32 36"><title>icon - box</title><g fill="#313567" fill-rule="evenodd"><path d="M22.785 18.788l-.131 1.625-.818.243-.81.243-.1-1.565c-.248.112-.634.237-.87.375-.1 1.051.308 3.474-1.874 5.277v3.333s1.473.898 3.637.24c2.163-.658 3.636-2.363 3.636-2.363v-3.252c-2.182-.608-1.772-3.233-1.871-4.224-.237.006-.55.03-.8.068z"/><path d="M13.09 34.305V18.531l17.455-5.316v15.773l-17.454 5.317zM1.456 8.218l10.181 10.08v15.244L1.455 23.462V8.218zm11.113 8.966L2.096 6.816l7.881-2.4L20.45 14.784l-7.882 2.4zm6.864-15.648l10.473 10.368-7.882 2.4L11.55 3.936l7.882-2.4zM31.787 11.73L20.15.21a.733.733 0 0 0-.728-.18L.513 5.792A.72.72 0 0 0 0 6.48v17.28c0 .19.076.374.213.509l11.636 11.52a.732.732 0 0 0 .728.18l18.91-5.76a.72.72 0 0 0 .513-.69V12.24a.714.714 0 0 0-.213-.508z"/></g></svg>