<svg xmlns="http://www.w3.org/2000/svg" viewBox="0 0 31 32"><title>icon - calendar</title><path d="M18.91 2.91h-7.274a2.91 2.91 0 0 0-5.818 0H1.455C.655 2.91 0 3.563 0 4.363v26.181C0 31.345.655 32 1.455 32H29.09c.8 0 1.454-.655 1.454-1.455V4.364c0-.8-.654-1.455-1.454-1.455h-4.364a2.91 2.91 0 0 0-5.818 0zm0 1.454h-7.274a2.91 2.91 0 0 1-5.818 0H1.455v26.181H29.09V4.364h-4.364a2.91 2.91 0 0 1-5.818 0zM8.726 5.818c-.8 0-1.454-.654-1.454-1.454V2.909c0-.8.654-1.454 1.454-1.454.8 0 1.455.654 1.455 1.454v1.455c0 .8-.655 1.454-1.455 1.454zm13.091 0c-.8 0-1.454-.654-1.454-1.454V2.909c0-.8.654-1.454 1.454-1.454.8 0 1.455.654 1.455 1.454v1.455c0 .8-.655 1.454-1.455 1.454zM1.455 10.182H29.09V8.727H1.455v1.455zm11.636 16c-.372 0-.745-.142-1.028-.426l-4.364-4.364a1.454 1.454 0 1 1 2.057-2.057l3.335 3.336 7.699-7.7a1.454 1.454 0 1 1 2.057 2.057l-8.728 8.728a1.448 1.448 0 0 1-1.028.426z" fill="#313567" fill-rule="evenodd"/></svg>