<svg xmlns="http://www.w3.org/2000/svg" viewBox="0 0 34 29"><title>Page 1</title><path d="M9.695 9.108h7.25V8.002h-7.25v1.106zm0-2.284h7.25V5.72h-7.25v1.105zm0-2.283h7.25V3.435h-7.25v1.106zm17.74 22.604L20.83 25.65l1.323-.203h.001a.827.827 0 0 0 .27-.09.782.782 0 0 0 .29-.272c.068-.111.108-.455.108-.592 0-.04-.004-.08-.011-.12l-.072-.417h3.117-.076c.109 0 .29-.022.386-.06a.796.796 0 0 0 .348-.27.725.725 0 0 0 .136-.42l-.003-17.822 5.98 1.37-5.194 20.391zm-22.588-.218l-3.561-20.7 4.762-.826.003 17.808c0 .102.023.202.063.292.061.135.16.248.287.328a.82.82 0 0 0 .444.129h.001l14.655-.002.035.204-16.689 2.767zM25.425 1.153l.003 21.685-18.154.002L7.27 1.156l18.155-.003zm8.346 4.845a.823.823 0 0 0-.442-.27l-6.681-1.53L26.647.75a.714.714 0 0 0-.063-.292.76.76 0 0 0-.286-.328.828.828 0 0 0-.446-.129L6.842.003a.819.819 0 0 0-.658.33.718.718 0 0 0-.137.419l.001 3.48-5.38.922a.827.827 0 0 0-.27.091.77.77 0 0 0-.29.271.72.72 0 0 0-.098.498l3.698 21.495c.016.091.05.178.097.255.07.114.17.207.287.273a.835.835 0 0 0 .528.092l13.087-2.002 9.858 2.233a.827.827 0 0 0 .673-.137.743.743 0 0 0 .286-.417l5.393-21.174a.717.717 0 0 0-.146-.634z" fill="#313567" fill-rule="evenodd"/></svg>