<svg xmlns="http://www.w3.org/2000/svg" width="78" height="78" viewBox="0 0 78 78" fill="none" class="step-image-svg">
    <path d="M66.314 4.343h-6.307a2.474 2.474 0 0 0-.237-.316 2.415 2.415 0 0 0-1.734-.606l-4.678.264A2.443 2.443 0 0 0 51.493 3L37.59 4.343h-11.51a2.335 2.335 0 0 0-1.918 1.027l-6.307.263a2.625 2.625 0 0 0-1.445.632l-4.993.473a2.626 2.626 0 0 0-1.63.87 2.45 2.45 0 0 0-.551 1.868l6.018 63.181a2.397 2.397 0 0 0 2.39 2.212h.238l18.21-1.738 7.884-.447h22.258a2.414 2.414 0 0 0 2.233-1.495c.122-.294.184-.61.184-.927V6.765a2.416 2.416 0 0 0-2.339-2.422zm.551 65.813a.58.58 0 0 1-.551.553H26.08a.551.551 0 0 1-.552-.553V6.765a.5.5 0 0 1 0-.342.5.5 0 0 1 .42-.211h40.365a.551.551 0 0 1 .551.553v63.391zm-49.745 2.29L11.103 9.293c0-.142.046-.281.131-.395a.762.762 0 0 1 .368-.21l3.968-.422 3.6 63.366c.033.409.178.8.42 1.132l-1.892.184a.577.577 0 0 1-.578-.5zm.342-64.18a.5.5 0 0 1 .131-.37.551.551 0 0 1 .368-.184l5.703-.315v62.812c0 .617.235 1.21.657 1.659l-2.628.157a.472.472 0 0 1-.394 0 .527.527 0 0 1-.237-.579l-3.6-63.18z" fill="#002684"/>
    <path d="M28.762 39.566h34.871a.945.945 0 0 0 .946-.948V9.265a.949.949 0 0 0-.946-1H28.762a.945.945 0 0 0-.946.947v29.406a.948.948 0 0 0 .946.948zm24.754-4.528a1.003 1.003 0 0 1-.628.956.998.998 0 0 1-.397.07H40.22a.998.998 0 0 1-1.025-1.026v-1.685h14.322v1.685zM34.806 23.77c.097-.099.229-.156.368-.158h.867a7.188 7.188 0 0 1 2.778-4.257 7.164 7.164 0 0 1 4.895-1.35c.68.01 1.359.089 2.023.237l2.628-6.423 1.55.658-2.548 6.318c.368.158.71.342 1.05.526l2.865-6.923 1.55.658-2.758 6.608a8.713 8.713 0 0 1 3.678 1.368c.362.246.696.528.999.843.44.397.804.87 1.077 1.395.064.109.117.224.158.342h1.55a.524.524 0 0 1 .395.158.713.713 0 0 1 0 .395 10.807 10.807 0 0 1-1.682 4.87c-.257.412-.537.807-.841 1.185-.263.316-.552.606-.84.921l-.343.343a8.17 8.17 0 0 1-.735.605h-14.4l-.737-.605a10.906 10.906 0 0 1-3.679-7.424.449.449 0 0 1 .132-.29z" fill="#002684"/>
    <path d="M53.91 23.613a5.966 5.966 0 0 0-3.18-2.185 4.72 4.72 0 0 1 .657 2.106l2.523.079zM41.428 23.613h4.599a3.308 3.308 0 0 0-2.287-.869 3.255 3.255 0 0 0-2.312.869z" fill="#002684"/>
    <path d="M43.714 21.06a4.724 4.724 0 0 1 4.362 2.632h1.63a5.606 5.606 0 0 0-2.288-3.046 5.59 5.59 0 0 0-3.704-.877 5.563 5.563 0 0 0-3.691.88 5.58 5.58 0 0 0-2.274 3.043h1.577a4.788 4.788 0 0 1 4.388-2.633zM47.656 61.785h-.526v1.132h-1.103v-1.132h-.5c0 .71.158 2.632-1.235 3.37v2.316a3.26 3.26 0 0 0 2.365.974 3.386 3.386 0 0 0 2.365-.895v-2.396c-1.524-.842-1.287-2.658-1.366-3.37zM63.87 43.199H28.525a.943.943 0 0 0-.874.585.948.948 0 0 0 0 .721.92.92 0 0 0 .874.563H63.87a.917.917 0 0 0 .873-.563.949.949 0 0 0-.874-1.306zM28.525 49.648h30.64a.945.945 0 0 0 .875-1.31.95.95 0 0 0-.874-.585h-30.64a.943.943 0 0 0-1.016.536.949.949 0 0 0 1.015 1.333v.026zM63.87 52.36H28.525a.946.946 0 0 0-.768 1.658.945.945 0 0 0 .768.21H63.87a.944.944 0 0 0 1.103-.934.95.95 0 0 0-.696-.914.946.946 0 0 0-.407-.02zM60.716 57.099h-32.19a.943.943 0 0 0-1.016.535.949.949 0 0 0 1.015 1.334h32.191a.944.944 0 0 0 1.103-.935.949.949 0 0 0-1.103-.934z" fill="#002684"/>
</svg>