<svg xmlns="http://www.w3.org/2000/svg" width="78" height="78" viewBox="0 0 78 78" fill="none" class="step-image-svg">
    <g clip-path="url(#lpxtt47d1a)" fill="#002684">
        <path d="M10.694 57.72h56.612c.097-.776.147-1.558.148-2.34h-56.94c.012.783.072 1.564.18 2.34zM29.92 74.88h18.16a19.453 19.453 0 0 0 19-15.6H10.92a19.453 19.453 0 0 0 19 15.6zM30.81 3.9h-12.3s0 3.557 3.58 3.557h3.9l-9.657 5.803s2.177 3.697 5.905 1.466l6.692-4.017-8.283 9.36s3.182 2.87 6.068-.382l4.095-4.633v5.53l5.967 6.388s2.434-2.917 0-5.507l-1.56-1.817V16.31s-.288-3.83 2.84-3.83c3.127 0 3.743 2.473 2.004 5.366-1.225 2.036-2.566 3.9.047 6.45 0 0 6.24-7.932 10.218-7.932H78V3.9H30.81zM41.317 29.617a1.56 1.56 0 1 0 0-3.12 1.56 1.56 0 0 0 0 3.12zM43.657 36.637a1.56 1.56 0 1 0 0-3.12 1.56 1.56 0 0 0 0 3.12zM33.914 40.56a1.56 1.56 0 1 0 0-3.12 1.56 1.56 0 0 0 0 3.12zM40.178 53.048a1.56 1.56 0 1 0 0-3.12 1.56 1.56 0 0 0 0 3.12zM40.178 42.9a1.17 1.17 0 1 0 0-2.34 1.17 1.17 0 0 0 0 2.34zM43.68 46.418a1.17 1.17 0 1 0 2.34 0 1.17 1.17 0 0 0-2.34 0zM34.32 46.418a1.17 1.17 0 1 0 2.34 0 1.17 1.17 0 0 0-2.34 0zM36.231 34.304a1.17 1.17 0 1 0 0-2.34 1.17 1.17 0 0 0 0 2.34zM57.291 34.936a6.325 6.325 0 0 0-7.566 5.008 6.334 6.334 0 0 0 7.566-5.008zM26.715 35.358a6.098 6.098 0 0 0-4.82-7.278 6.11 6.11 0 0 0 4.82 7.3v-.023zM54.756 53.04h6.942a3.471 3.471 0 0 0-6.942 0z"/>
        <path d="M58.227 43.875a9.243 9.243 0 0 0-9.282 9.165h1.56a7.722 7.722 0 1 1 15.444 0h1.56a9.251 9.251 0 0 0-9.282-9.165z"/>
        <path d="M63.29 53.04h1.56a6.63 6.63 0 1 0-13.26 0h1.56a5.07 5.07 0 0 1 10.14 0zM20.694 47.268a5.819 5.819 0 0 0-5.874 5.772h11.7a5.82 5.82 0 0 0-5.826-5.772zM21.325 46.278h.265c5.593 0 5.702-3.729 5.702-3.729v-3.12c-6.38.008-5.967 6.849-5.967 6.849zM20.28 46.277h.21s.336-5.46-4.78-5.46v2.496s.1 2.964 4.57 2.964z"/>
    </g>
    <defs>
        <clipPath id="lpxtt47d1a">
            <path fill="#fff" d="M0 0h78v78H0z"/>
        </clipPath>
    </defs>
</svg>