<svg width="39" height="36" xmlns="http://www.w3.org/2000/svg"><g fill="#002684"><path d="M18.455 20.327c.31.479.593.984.79 1.513a15.4 15.4 0 0 0-1.06-1.316 34.1 34.1 0 0 0-1.151-1.227c-.79-.8-1.605-1.574-2.425-2.342a417.461 417.461 0 0 0-2.488-2.292 107.203 107.203 0 0 1-2.482-2.33c.99.577 1.927 1.236 2.834 1.923a35.198 35.198 0 0 1 2.615 2.205 26.57 26.57 0 0 1 2.358 2.48c.353.449.697.907 1.01 1.386zm2.578-.334c-.449.598-.867 1.223-1.29 1.847.264-.705.601-1.385.963-2.053.378-.659.776-1.303 1.22-1.923a28.962 28.962 0 0 1 2.938-3.487 34.939 34.939 0 0 1 3.405-3.04c1.203-.936 2.449-1.817 3.787-2.549-1.147.997-2.28 1.992-3.388 3.005a84.79 84.79 0 0 0-3.238 3.116 55.38 55.38 0 0 0-3.013 3.317l-.358.433c-.117.144-.231.295-.348.44-.118.144-.235.29-.345.44l-.333.454z"/><path d="M28.666 0c-3.984 0-7.442 2.214-9.168 5.451C17.776 2.214 14.32 0 10.336 0 4.626 0 0 4.54 0 10.136c0 5.92 5.62 10.29 9.176 14.445.588.689 6.783 7.328 9.342 10.542.234.297.505.69.67.875.164.183-1.4-9.897-.437-13.484 0-.002-.572-.195-.877-.322C10.7 19.27 9.09 13.94 8.73 11.68a.158.158 0 0 1 .04-.128.15.15 0 0 1 .07-.047c.017-.003.034-.009.056-.009 3.169 0 5.667.739 7.446 2.198.178.144.354.299.515.462.047.043.09.089.134.132.13.137.258.278.379.42 1.168 1.393 1.73 3.063 1.983 4.561.184-2.21.82-4.92 2.603-7.147a9.723 9.723 0 0 1 1.32-1.365c2.29-1.961 5.55-3.004 9.704-3.095.03 0 .053.003.074.013.04.013.07.039.091.059a.2.2 0 0 1 .057.17c-.41 2.967-2.368 10.003-11.695 14.047-.418.18-.853.358-1.308.525-.607 2.903.485 13.085.846 12.65 3.248-3.895 6.57-7.73 9.814-11.629C34.039 19.667 39 15.401 39 10.13 39 4.54 34.376 0 28.666 0z"/><path d="M19.24 21.84a15.4 15.4 0 0 0-1.06-1.316 35.74 35.74 0 0 0-1.15-1.227c-.79-.8-1.605-1.574-2.424-2.342a417.461 417.461 0 0 0-2.49-2.292 107.203 107.203 0 0 1-2.48-2.33c.99.577 1.926 1.236 2.833 1.923a35.198 35.198 0 0 1 2.615 2.205 26.57 26.57 0 0 1 2.359 2.48c.361.445.706.902 1.016 1.38.303.483.585.988.782 1.519zM32.056 8.788c-1.147.997-2.28 1.992-3.388 3.005a84.79 84.79 0 0 0-3.238 3.116 55.38 55.38 0 0 0-3.013 3.317l-.358.433c-.117.144-.231.295-.348.44-.118.144-.235.29-.345.44l-.335.448c-.448.598-.867 1.224-1.29 1.847.264-.705.601-1.384.963-2.053.378-.658.776-1.302 1.22-1.922a28.962 28.962 0 0 1 2.938-3.488 34.939 34.939 0 0 1 3.405-3.04c1.205-.926 2.45-1.808 3.789-2.543z"/><path d="M32.056 8.788c-1.147.997-2.28 1.992-3.388 3.005a84.79 84.79 0 0 0-3.238 3.116 55.38 55.38 0 0 0-3.013 3.317l-.358.433c-.117.144-.231.295-.348.44-.118.144-.235.29-.345.44l-.335.448c-.448.598-.867 1.224-1.29 1.847.264-.705.601-1.384.963-2.053.378-.658.776-1.302 1.22-1.922a28.962 28.962 0 0 1 2.938-3.488 34.939 34.939 0 0 1 3.405-3.04c1.205-.926 2.45-1.808 3.789-2.543zM19.24 21.84a15.4 15.4 0 0 0-1.06-1.316 35.74 35.74 0 0 0-1.15-1.227c-.79-.8-1.605-1.574-2.424-2.342a417.461 417.461 0 0 0-2.49-2.292 107.203 107.203 0 0 1-2.48-2.33c.99.577 2 1.132 2.907 1.821a35.198 35.198 0 0 1 2.615 2.205 26.57 26.57 0 0 1 2.359 2.48c.361.445.705.902 1.016 1.38.322.63.51 1.09.708 1.62z"/></g></svg>